<svg xmlns="http://www.w3.org/2000/svg" width="284" height="309" viewBox="0 0 284 309" fill="none"><path d="M11.0002 116.896C12.7673 110.008 16.5409 105.905 22.6357 102.431C40.6056 92.3674 64.6254 91.8283 84.4521 95.8266C94.3805 97.983 108.187 102.925 112.335 113.063C113.444 116.058 113.488 119.262 113.503 122.452C112.051 116.522 106.36 113.242 101.029 111.251C91.4304 107.672 81.0229 107.297 70.8998 107.417C53.2744 108.316 30.827 112.449 17.3796 124.638C14.0252 127.903 12.4378 130.538 12.1234 134.836C11.6591 129.939 11.3147 125.118 11.0152 120.221C11.0152 118.888 11.0152 118.229 11.0152 116.896H11.0002Z" fill="#8BB8C0"></path><path d="M194.681 213.334C197.002 227.38 196.942 241.741 192.749 255.428C189.29 267.198 182.266 280.706 169.059 283.087C166.962 283.431 164.776 283.356 162.649 283.192C158.756 282.877 154.877 282.368 150.999 281.934C150.52 281.874 150.055 281.784 149.576 281.559C149.816 281.529 150.07 281.469 150.31 281.484C154.862 281.754 158.666 279.912 162.095 277.172C166.603 273.563 169.972 269.01 172.772 263.994C180.993 248.914 184.438 231.453 183.599 214.382C182.955 202.058 179.286 185.316 166.183 180.763C177.4 182.186 180.365 178.188 181.173 167.331C183.165 152.461 204.983 146.665 217.637 145.512C236.595 143.536 259.492 146.501 274.976 158.376C278.944 161.58 282.194 165.369 283.002 170.58C283.362 172.842 283.137 175.223 282.913 177.529C282.433 181.782 281.924 186.124 281.191 190.332C282.239 167.66 249.608 155.006 230.875 153.045C214.837 150.783 187.747 152.476 181.218 170.296C181.338 170.401 181.473 170.49 181.593 170.595C185.875 161.341 198.334 157.178 207.873 156.369C230.471 154.168 255.194 162.134 271.098 178.607C277.357 185.046 281.206 194.84 278.016 203.675C276.264 208.377 274.736 213.199 272.73 217.781C276.773 206.161 271.038 194.81 263.266 186.169C255.494 177.454 245.46 171.239 234.634 167.031C221.216 162.045 205.942 159.439 192.24 164.815C187.942 166.567 184.138 169.068 181.398 172.961C181.218 173.216 181.068 173.485 181.068 173.89C191.491 162.778 208.622 163.482 222.16 167.421C243.738 173.635 269.345 192.983 270.319 217.152C270.364 221.285 269.39 225.179 267.189 228.653C264.628 232.696 261.843 236.62 259.147 240.588C259.073 240.693 258.953 240.768 258.728 240.783C265.437 228.997 261.364 214.547 254.685 203.675C245.67 189.149 231.654 177.888 215.466 172.362C204.294 168.693 189.859 167.555 180.619 176.061C205.238 162.374 236.685 185.301 248.83 206.64C255.628 218.455 260.016 233.744 253.307 246.548C251.885 249.184 249.968 251.4 247.692 253.332C244.053 256.327 240.668 259.621 236.775 262.272C236.625 262.122 236.49 261.972 236.341 261.822C236.7 261.643 237.134 261.538 237.404 261.268C242.091 256.866 244.352 251.265 245.251 245.036C246.569 236.021 244.936 227.395 241.851 218.949C235.412 201.908 222.863 186.798 206.166 179.101C197.87 175.372 187.807 173.98 179.391 178.143C181.443 177.813 183.315 177.484 185.201 177.214C195.819 176.256 205.822 181.826 213.654 188.505C231.264 204.034 243.648 231.723 236.505 255.039C234.604 261.283 230.486 266.689 224.75 269.834C219.299 272.844 213.564 275.36 207.634 277.232C220.108 271.841 224.84 258.124 225.334 245.44C226.128 224.789 218.446 203.78 203.456 189.419C196.373 182.92 186.414 177.454 176.576 180.224C191.476 179.88 202.213 192.264 208.562 204.439C217.742 221.66 221.321 247.611 212.516 265.536C207.873 275.27 200.341 280.885 189.484 281.859C185.965 282.203 181.578 283.072 178.163 282.937C186.624 282.009 193.003 275.33 196.822 268.172C203.111 256.686 204.384 243.403 203.965 230.525C203.486 213.034 193.438 182.036 172.548 181.212C174.42 182.096 176.486 182.905 178.373 184.013C182.835 186.663 185.755 190.737 188.196 195.199C191.386 201.324 193.198 206.221 194.681 213.319V213.334Z" fill="#8BB8C0"></path><path d="M154.563 31.898C157.693 50.8262 155.851 71.237 146.072 88.0688C142.268 94.4631 135.036 102.205 127.114 101.846C146.686 95.6761 151.927 66.9991 150.894 49.0592C150.43 42.006 149.471 34.8929 147.255 28.1842C143.916 19.3939 140.292 10.2742 132.415 4.52383C128.521 1.60373 124.254 -0.268137 119.282 0.0313612C113.457 0.435684 107.617 0.884931 101.866 1.9781C103.289 2.3974 105.37 1.82835 106.943 2.0979C121.678 3.96976 131.277 17.7017 136.773 30.3705L137.626 32.5568C142.403 45.1058 144.365 58.733 142.418 72.0606C140.666 83.8159 135.275 98.102 122.786 101.846C134.661 95.3466 138.779 81.0606 139.034 68.3469C139.453 45.2256 127.967 15.5903 105.49 5.9764C100.294 3.93981 94.9927 3.20604 89.5867 5.12283C84.5402 7.06957 79.299 8.64193 74.4621 11.0828C74.7167 11.2326 74.8664 11.2026 75.0012 11.1577C97.5234 4.53881 118.488 27.8847 126.47 46.6632C133.912 63.6298 137.252 88.9074 120.884 101.756C120.151 102.28 119.671 102.744 119.596 102.669C128.761 94.4331 130.663 81.7943 128.746 70.1738C124.928 45.2855 103.798 17.3274 77.532 14.3773C66.0612 12.8349 56.9115 21.116 48.87 28.1093C69.4155 14.8715 96.8795 31.8231 110.057 48.5201C121.244 62.0125 131.067 86.2569 118.923 101.876C118.548 102.37 117.785 103.223 117.799 103.178C117.859 102.999 118.997 101.217 119.087 101.052C123.43 93.34 122.741 84.0256 120.121 75.8643C111.839 50.377 81.4703 26.0278 53.9015 29.9812C47.7319 31.0444 42.3858 33.68 38.4624 38.7115C35.3027 42.8446 32.188 47.0226 29.2529 51.3204C29.3427 51.3953 29.4326 51.4701 29.5224 51.53C41.9815 34.863 70.1194 41.2123 85.6933 50.0475C103.648 59.6614 126.26 83.3966 115.987 105.14C115.928 104.826 116.422 102.924 116.482 102.654C119.042 91.0338 112.513 79.8176 104.651 71.821C97.6732 64.8727 89.5568 58.9875 80.4521 55.154C66.9447 49.3138 51.1012 46.1241 36.8152 50.991C30.6156 53.2222 25.5691 56.8761 22.7987 63.0907C20.6723 67.9425 18.7704 72.9142 16.9435 77.8859C17.0183 77.8859 17.0933 77.9158 17.1681 77.9308C23.9368 63.4501 42.7153 61.2637 56.9115 62.4318C75.5852 64.3036 94.2889 71.6563 107.033 85.8675C112.453 91.8575 115.868 99.5995 114.61 107.791C114.565 108.195 114.46 109.198 114.325 109.198C114.28 95.4215 102.63 85.9274 91.4286 80.0273L88.3738 78.6047C78.1908 74.3368 67.5586 70.9225 56.4473 70.623C44.6321 70.039 32.0232 71.2969 22.035 78.2003C17.9917 81.0606 14.9519 84.6845 13.9186 89.6711C12.7506 95.2268 11.9718 100.842 11.4177 106.488C12.2713 104.856 12.481 102.939 13.4094 101.352C24.5807 83.2918 59.7867 82.8126 78.3406 87.2302C90.2756 89.9856 107.032 96.2751 112.049 108.435C112.738 110.351 113.007 112.418 113.472 114.41C113.412 114.035 113.472 113.571 113.592 113.122C114.071 111.19 114.445 109.228 115.104 107.356C117.245 101.187 124.913 102.19 130.094 102.894C145.293 104.571 156.09 83.6961 160.133 71.5215C165.27 56.7114 166.947 40.8829 164.297 25.3689C163.338 19.5586 161.526 14.0179 158.067 9.15108C155.686 5.81167 152.766 3.05629 148.603 2.3375C142.673 1.439 136.773 0.510558 130.783 0.15116C132.789 0.795081 134.751 1.24433 136.548 2.038C147 6.88987 151.313 18.72 153.964 29.1725L154.563 31.9429V31.898Z" fill="#8BB8C0"></path><path d="M127.206 154.467C99.2327 174.055 72.0532 194.495 45.5177 215.984C42.1484 211.297 38.9587 206.236 35.6942 201.444C35.0952 200.545 34.9904 199.692 35.7242 198.928C43.1966 190.527 52.6607 184.223 62.065 178.188C71.0948 172.527 80.2295 167.001 89.469 161.655C98.9631 156.16 108.847 151.398 119.224 147.789C120.826 147.309 122.668 147.205 123.567 148.972C124.705 150.873 125.993 152.67 127.206 154.482V154.467Z" fill="#8BB8C0"></path><path d="M29.7336 190.469C29.449 190.064 29.2993 189.9 29.2244 189.72C26.8733 184.554 24.4923 179.372 22.1712 174.191C21.4374 172.544 22.0364 170.986 22.86 169.549C30.8267 156.91 59.1592 144.945 73.4003 140.213C81.6815 137.473 90.0674 135.092 98.7229 133.864C103.096 133.235 107.498 132.726 111.931 133.519C114.971 134.058 117.142 135.526 118.13 138.611C118.625 140.183 119.463 141.636 120.182 143.253C108.936 137.293 30.4673 177.605 29.7485 190.469H29.7336Z" fill="#8BB8C0"></path><path d="M52.8684 225.044C69.6403 212.585 85.4388 198.898 101.252 185.271C111.271 176.54 121.334 168.019 130.573 158.436C132.056 160.457 133.748 162.119 135.455 163.916C136.189 164.68 136.129 165.564 135.77 166.387C135.186 167.735 134.661 169.173 133.808 170.341C125.976 181.736 116.991 192.189 107.527 202.252C100.519 209.889 93.1659 217.212 85.4388 224.13C80.2276 228.818 74.9864 233.49 68.9365 237.114C67.4391 238.027 65.5822 238.926 64.1745 237.263C60.4757 233.13 56.4325 229.267 52.8535 225.044H52.8684Z" fill="#8BB8C0"></path><path d="M139.23 167.42C141.431 169.083 143.377 170.49 145.234 172.003C146.417 172.961 146.777 174.384 146.852 175.866C147.031 179.026 146.328 182.036 145.399 185.016C142.883 193.027 139.185 200.485 135.022 207.733C128.088 220.147 119.388 231.378 109.969 241.98C105.895 246.698 101.313 250.861 96.0419 254.2C93.1667 255.727 89.5128 258.138 86.4579 255.653C82.2499 252.403 77.9672 249.198 73.6993 246.024C73.8341 245.784 73.8641 245.664 73.894 245.664C76.919 245.604 79.3149 244.002 81.5612 242.28C93.5111 233.205 103.844 222.273 113.488 210.803C119.028 204.304 142.883 174.758 139.23 167.435V167.42Z" fill="#8BB8C0"></path><path d="M115.75 132.274C111.931 126.659 104.234 127.333 98.3193 127.093C92.0148 126.898 85.8601 127.947 79.7204 129.175C67.6057 131.586 55.9253 135.329 44.6642 140.421C38.2849 143.296 32.0702 146.486 26.5595 150.843C24.433 152.521 22.4714 154.452 20.6295 156.459C19.102 158.136 18.0987 160.173 18.3084 162.614C18.2185 162.614 18.1287 162.614 18.0388 162.614C16.4066 157.223 15.2235 151.712 13.9058 146.231C13.3068 143.67 14.1603 141.409 15.4931 139.298C23.4448 127.692 43.6758 121.208 56.9436 118.258C67.4859 115.877 78.3278 114.754 89.1247 115.173C94.89 115.383 100.64 116.147 106.031 118.453C113.893 121.687 113.699 124.802 115.735 132.245L115.75 132.274Z" fill="#8BB8C0"></path><path d="M96.761 262.092C99.9956 262.961 102.766 261.943 105.237 260.265C107.917 258.454 110.538 256.507 112.904 254.305C122.817 245.141 130.29 234.089 137.014 222.484C142.345 213.424 157.379 183.339 149.068 174.624C154.998 176.571 159.161 179.97 159.955 186.619C160.599 191.935 160.255 197.146 159.356 202.373C155.553 223.891 141.865 253.632 124.21 267.004C120.631 269.7 115.794 271.916 111.406 269.909C106.57 267.528 101.838 264.953 97.0605 262.452C96.9707 262.407 96.9258 262.302 96.7461 262.107L96.761 262.092Z" fill="#8BB8C0"></path><path d="M122.293 274.491C139.874 276.618 155.852 243.823 160.344 229.716C164.687 217.227 171.396 187.727 158.562 178.937C161.872 179.955 165.391 180.434 168.086 183.025C174.54 189.344 176.083 198.599 176.712 207.194C177.356 228.683 171.86 250.966 158.862 268.337C154.025 274.491 146.552 281.47 138.047 279.358C132.895 277.846 127.1 276.004 122.293 274.491Z" fill="#8BB8C0"></path><path d="M171.965 135.884C170.737 134.027 169.36 131.991 168.072 129.879C167.907 129.625 168.132 128.921 168.401 128.651C178.27 119.756 189.845 111.655 200.388 103.434C215.422 92.2173 230.802 81.4653 246.495 71.2075C247.439 70.5786 248.487 70.0844 249.49 69.5453C250.074 69.2308 250.553 69.3656 250.913 69.9197C254.013 74.8764 257.457 79.6384 260.377 84.6849C256.873 84.026 253.773 85.3139 250.703 86.467C240.55 90.2706 230.966 95.2872 221.472 100.498C210.945 106.279 200.702 112.523 190.804 119.322C184.035 124.189 176.593 128.741 171.98 135.884H171.965Z" fill="#8BB8C0"></path><path d="M176.728 145.167C175.694 143.086 174.616 141.034 173.658 138.923C173.089 137.65 173.508 136.362 174.407 135.419C184.26 124.577 197.258 117.314 209.837 110.126C223.165 102.818 236.702 95.7054 251.228 91.0632C254.433 90.0449 257.652 89.0865 261.081 89.1314C262.399 89.1464 263.298 89.5806 263.882 90.8385C266.308 96.1546 268.943 101.216 271.294 106.577C266.023 100.902 247.574 105.858 240.745 107.715C221.173 113.54 201.751 121.477 185.278 133.742C182.912 135.599 180.786 137.785 178.719 139.971C177.417 141.349 176.608 143.086 176.728 145.138V145.167Z" fill="#8BB8C0"></path><path d="M231.55 47.5164C235.563 51.1703 239.008 55.2734 242.602 59.3167C243.62 60.4548 243.65 60.6944 242.482 61.6977C224.137 77.9305 205.224 93.4894 186.281 109.003C179.797 114.245 173.238 119.396 166.694 124.577C164.822 125.925 164.852 125.895 163.384 124.098C162.201 122.66 160.899 121.403 159.686 119.98C163.429 119.111 166.215 116.79 168.955 114.544C178.359 106.877 187.284 98.6258 196 90.1949C206.812 79.1434 217.683 68.092 226.938 55.6778C228.735 53.0721 230.697 50.6162 231.55 47.5015V47.5164Z" fill="#8BB8C0"></path><path d="M150.897 112.553C153.922 112.943 156.333 111.595 158.624 110.113C169.825 102.925 177.792 91.9929 186.118 81.8399C193.755 72.0014 200.059 61.2045 205.66 50.1081C208.086 45.2413 213.102 33.8154 209.763 28.9336C214.256 32.1981 218.508 35.7771 222.881 39.1914C223.675 39.8203 224.094 40.7188 223.81 41.6473C223.151 43.8186 222.582 46.0799 221.518 48.0715C213.357 63.286 201.886 76.2992 190.445 89.1027C186.237 93.715 181.91 98.2225 177.432 102.55C171.772 107.911 165.946 113.467 158.729 116.701C157.815 117.121 156.797 117.271 155.898 116.552C154.221 115.234 152.559 113.886 150.897 112.568V112.553Z" fill="#8BB8C0"></path><path d="M180.08 155.831C179.406 153.42 178.732 151.263 178.208 149.092C177.415 144.525 182.746 140.107 185.92 137.516C191.955 132.739 198.694 129.1 205.732 126.076C220.123 119.846 235.068 114.65 250.717 112.763C256.931 111.864 263.236 111.819 269.39 113.122C272.67 113.751 275.051 115.623 275.919 119.112C277.132 123.919 278.48 128.681 279.768 133.458C279.798 133.563 279.768 133.668 279.768 133.967C273.538 120.13 237.883 124.608 225.649 127.543C213.459 129.954 179.466 140.676 180.08 155.846V155.831Z" fill="#8BB8C0"></path><path d="M141.701 106.952C151.18 109.064 162.292 95.4963 167.293 88.6378C177.506 74.3817 185.039 58.1489 188.917 41.0176C190.055 35.7614 190.594 30.4453 190.28 25.0693C190.19 21.3256 188.797 17.537 186.117 14.8564C190.4 16.8781 194.772 19.7083 199.07 21.8497C206.228 25.1442 202.379 37.3637 200.657 43.0991C197.722 52.2488 193.514 60.8294 188.737 69.1405C181.954 80.7011 174.227 91.9023 164.568 101.262C160.959 104.646 157.23 107.91 152.513 109.752C150.117 110.696 147.871 110.621 145.67 109.138C144.427 108.3 143.049 107.656 141.731 106.922L141.701 106.952Z" fill="#8BB8C0"></path><path d="M260.87 143.789C265.152 145.002 269.241 146.71 273.059 149.001C278.33 152.056 282.164 156.174 283.362 162.343C283.287 157.506 282.493 152.759 282.314 147.938C282.059 143.385 280.202 139.806 276.294 137.47C270.588 134.071 264.149 131.989 257.485 131.615C242.525 129.938 227.236 131.106 212.755 135.299C203.231 138.069 194.022 141.528 186.384 148.147C182.551 151.472 179.9 155.425 180.799 160.891C181.023 162.224 181.113 163.586 181.263 164.934C181.308 164.964 181.368 164.979 181.413 165.009C181.413 154.571 193.737 148.252 202.303 145.242C220.243 139.132 239.635 138.743 258.054 142.906L260.885 143.774L260.87 143.789Z" fill="#8BB8C0"></path><path d="M159.942 4.86898C164.928 6.20175 169.735 8.10356 174.617 9.73582C180.802 11.9521 182.479 19.0951 183.018 24.9503C184.531 47.5325 173.404 75.9399 159.313 93.3856C153.982 99.6152 145.461 108.525 136.461 104.737C135.383 104.272 134.245 103.943 133.002 103.494C138.213 104.033 142.87 102.101 146.734 98.7317C151.556 94.7483 155.21 89.7916 158.31 84.4306C167.504 68.1379 172.416 49.3145 171.667 30.5959C171.083 21.2066 169.047 9.76577 159.957 4.854L159.942 4.86898Z" fill="#8BB8C0"></path><path d="M38.2088 272.83C42.6236 272.732 47.2736 272.274 52.0395 271.422C58.1648 270.328 63.8905 268.69 69 266.665C63.5133 266.532 57.5784 266.979 51.4568 268.073C46.691 268.924 42.1679 270.109 37.9847 271.543C42.1007 269.92 46.3137 267.88 50.5081 265.427C55.894 262.278 60.7233 258.751 64.8392 255.08C59.6401 256.859 54.2132 259.33 48.8274 262.483C44.6367 264.935 40.786 267.615 37.3386 270.412C40.6552 267.46 43.9308 264.084 47.0421 260.326C51.0385 255.5 54.385 250.512 57.0182 245.634C52.7342 249.104 48.4688 253.313 44.4724 258.138C41.3612 261.896 38.6458 265.749 36.3526 269.571C38.474 265.647 40.4087 261.34 42.0671 256.73C44.1923 250.811 45.6564 244.964 46.4818 239.468C43.6283 244.214 41.04 249.645 38.911 255.568C37.2564 260.178 36.0052 264.739 35.1424 269.125C35.811 264.704 36.177 259.981 36.177 255.08C36.177 248.779 35.5794 242.78 34.5 237.33C33.4206 242.78 32.823 248.782 32.823 255.08C32.823 259.985 33.1853 264.704 33.8576 269.125C32.9948 264.739 31.7436 260.174 30.089 255.568C27.9638 249.649 25.3754 244.218 22.5182 239.468C23.3436 244.964 24.804 250.811 26.9329 256.73C28.5875 261.34 30.5222 265.647 32.6437 269.571C30.3504 265.749 27.6351 261.896 24.5276 258.138C20.5312 253.313 16.2658 249.104 11.9818 245.634C14.6112 250.512 17.9578 255.5 21.9579 260.326C25.0692 264.084 28.341 267.46 31.6614 270.412C28.2178 267.611 24.3633 264.932 20.1726 262.483C14.7868 259.334 9.35986 256.859 4.16077 255.08C8.28045 258.755 13.106 262.278 18.4919 265.427C22.6825 267.88 26.8993 269.92 31.0153 271.543C26.8321 270.105 22.309 268.924 17.5432 268.073C11.4178 266.979 5.48295 266.532 0 266.665C5.10945 268.69 10.8389 270.328 16.9605 271.422C21.7264 272.274 26.3764 272.732 30.7912 272.83C26.3764 272.928 21.7264 273.386 16.9605 274.238C10.8352 275.332 5.10945 276.97 0 278.995C5.48668 279.128 11.4216 278.681 17.5432 277.587C22.309 276.736 26.8321 275.551 31.0153 274.117C26.8993 275.74 22.6863 277.78 18.4919 280.233C13.106 283.382 8.27671 286.909 4.16077 290.58C9.35986 288.801 14.7868 286.33 20.1726 283.177C24.3633 280.725 28.214 278.045 31.6614 275.248C28.3448 278.2 25.0692 281.576 21.9579 285.335C17.9615 290.16 14.615 295.148 11.9818 300.027C16.2658 296.556 20.5312 292.348 24.5276 287.522C27.6388 283.764 30.3542 279.911 32.6437 276.089C30.5222 280.013 28.5875 284.32 26.9329 288.93C24.8077 294.849 23.3436 300.696 22.5182 306.192C25.3717 301.446 27.9601 296.015 30.089 290.092C31.7436 285.482 32.9948 280.922 33.8576 276.535C33.189 280.956 32.823 285.679 32.823 290.58C32.823 296.882 33.4206 302.88 34.5 308.33C35.5794 302.88 36.177 296.878 36.177 290.58C36.177 285.675 35.8147 280.956 35.1424 276.535C36.0052 280.922 37.2564 285.486 38.911 290.092C41.0362 296.011 43.6246 301.442 46.4818 306.192C45.6564 300.696 44.196 294.849 42.0671 288.93C40.4125 284.32 38.4778 280.013 36.3526 276.089C38.6458 279.911 41.3612 283.764 44.4724 287.522C48.4688 292.348 52.7342 296.556 57.0182 300.027C54.3888 295.148 51.0422 290.16 47.0421 285.335C43.9308 281.576 40.659 278.2 37.3386 275.248C40.7822 278.049 44.6367 280.729 48.8274 283.177C54.2132 286.326 59.6401 288.801 64.8392 290.58C60.7196 286.905 55.894 283.382 50.5081 280.233C46.3175 277.78 42.1007 275.74 37.9847 274.117C42.1679 275.555 46.691 276.736 51.4568 277.587C57.5822 278.681 63.517 279.128 69 278.995C63.8905 276.97 58.1611 275.332 52.0395 274.238C47.2736 273.386 42.6236 272.928 38.2088 272.83Z" fill="url(#paint0_radial_3569_463)"></path><defs><radialGradient id="paint0_radial_3569_463" cx="0" cy="0" r="1" gradientUnits="userSpaceOnUse" gradientTransform="translate(34.5 272.83) rotate(90) scale(35.5 34.5)"><stop stop-color="#30312F"></stop><stop offset="0.759615" stop-color="#1E1E1D"></stop></radialGradient></defs></svg>