<svg xmlns="http://www.w3.org/2000/svg" width="357" height="138" viewBox="0 0 357 138" fill="none"><rect width="357" height="138" fill="white"></rect><path d="M64.872 113.792C64.115 113.792 63.443 113.616 62.856 113.264C62.28 112.912 61.827 112.421 61.496 111.792C61.165 111.152 61 110.411 61 109.568C61 108.715 61.16 107.973 61.48 107.344C61.811 106.715 62.269 106.224 62.856 105.872C63.453 105.52 64.136 105.344 64.904 105.344C65.693 105.344 66.36 105.52 66.904 105.872C67.459 106.224 67.88 106.688 68.168 107.264C68.467 107.829 68.616 108.453 68.616 109.136C68.616 109.243 68.616 109.355 68.616 109.472C68.616 109.589 68.611 109.723 68.6 109.872H62.008V108.832H67.304C67.272 108.096 67.027 107.52 66.568 107.104C66.12 106.688 65.555 106.48 64.872 106.48C64.413 106.48 63.987 106.587 63.592 106.8C63.208 107.003 62.899 107.307 62.664 107.712C62.429 108.107 62.312 108.603 62.312 109.2V109.648C62.312 110.309 62.429 110.864 62.664 111.312C62.909 111.76 63.224 112.096 63.608 112.32C64.003 112.544 64.424 112.656 64.872 112.656C65.437 112.656 65.901 112.533 66.264 112.288C66.637 112.032 66.904 111.691 67.064 111.264H68.392C68.264 111.744 68.04 112.176 67.72 112.56C67.4 112.944 67 113.248 66.52 113.472C66.051 113.685 65.501 113.792 64.872 113.792ZM75.07 113.792C74.398 113.792 73.811 113.68 73.31 113.456C72.819 113.232 72.424 112.923 72.126 112.528C71.838 112.123 71.662 111.648 71.598 111.104H72.974C73.027 111.381 73.139 111.637 73.31 111.872C73.48 112.107 73.71 112.299 73.998 112.448C74.296 112.587 74.659 112.656 75.086 112.656C75.459 112.656 75.768 112.603 76.014 112.496C76.259 112.379 76.44 112.224 76.558 112.032C76.686 111.84 76.75 111.632 76.75 111.408C76.75 111.077 76.67 110.827 76.51 110.656C76.36 110.485 76.136 110.352 75.838 110.256C75.539 110.149 75.176 110.059 74.75 109.984C74.398 109.92 74.051 109.835 73.71 109.728C73.368 109.621 73.064 109.483 72.798 109.312C72.531 109.131 72.318 108.912 72.158 108.656C72.008 108.4 71.934 108.085 71.934 107.712C71.934 107.253 72.051 106.848 72.286 106.496C72.52 106.133 72.856 105.851 73.294 105.648C73.742 105.445 74.259 105.344 74.846 105.344C75.71 105.344 76.408 105.552 76.942 105.968C77.475 106.384 77.79 106.987 77.886 107.776H76.558C76.504 107.371 76.328 107.056 76.03 106.832C75.742 106.597 75.342 106.48 74.83 106.48C74.328 106.48 73.944 106.581 73.678 106.784C73.422 106.987 73.294 107.253 73.294 107.584C73.294 107.797 73.363 107.989 73.502 108.16C73.651 108.32 73.864 108.459 74.142 108.576C74.43 108.693 74.782 108.789 75.198 108.864C75.731 108.96 76.216 109.088 76.654 109.248C77.091 109.408 77.443 109.648 77.71 109.968C77.987 110.277 78.126 110.72 78.126 111.296C78.126 111.797 77.998 112.235 77.742 112.608C77.496 112.981 77.144 113.275 76.686 113.488C76.227 113.691 75.688 113.792 75.07 113.792ZM81.661 117.12V105.536H82.877L82.989 106.848C83.16 106.592 83.378 106.352 83.645 106.128C83.912 105.893 84.232 105.707 84.605 105.568C84.978 105.419 85.405 105.344 85.885 105.344C86.674 105.344 87.357 105.531 87.933 105.904C88.52 106.277 88.973 106.784 89.293 107.424C89.624 108.053 89.789 108.773 89.789 109.584C89.789 110.395 89.624 111.12 89.293 111.76C88.973 112.389 88.52 112.885 87.933 113.248C87.346 113.611 86.658 113.792 85.869 113.792C85.218 113.792 84.642 113.659 84.141 113.392C83.65 113.125 83.272 112.752 83.005 112.272V117.12H81.661ZM85.725 112.624C86.248 112.624 86.712 112.496 87.117 112.24C87.522 111.984 87.837 111.632 88.061 111.184C88.296 110.725 88.413 110.187 88.413 109.568C88.413 108.96 88.296 108.427 88.061 107.968C87.837 107.509 87.522 107.152 87.117 106.896C86.712 106.64 86.248 106.512 85.725 106.512C85.192 106.512 84.722 106.64 84.317 106.896C83.912 107.152 83.597 107.509 83.373 107.968C83.149 108.427 83.037 108.96 83.037 109.568C83.037 110.187 83.149 110.725 83.373 111.184C83.597 111.632 83.912 111.984 84.317 112.24C84.722 112.496 85.192 112.624 85.725 112.624ZM95.901 113.792C95.25 113.792 94.706 113.68 94.269 113.456C93.831 113.221 93.506 112.917 93.293 112.544C93.079 112.16 92.973 111.744 92.973 111.296C92.973 110.752 93.111 110.293 93.389 109.92C93.677 109.536 94.077 109.248 94.589 109.056C95.111 108.853 95.725 108.752 96.429 108.752H98.557C98.557 108.251 98.477 107.835 98.317 107.504C98.167 107.163 97.943 106.907 97.645 106.736C97.357 106.565 96.994 106.48 96.557 106.48C96.045 106.48 95.602 106.608 95.229 106.864C94.855 107.12 94.626 107.499 94.541 108H93.165C93.229 107.424 93.421 106.944 93.741 106.56C94.071 106.165 94.487 105.867 94.989 105.664C95.49 105.451 96.013 105.344 96.557 105.344C97.303 105.344 97.922 105.483 98.413 105.76C98.914 106.027 99.287 106.405 99.533 106.896C99.778 107.376 99.901 107.947 99.901 108.608V113.6H98.701L98.621 112.176C98.514 112.4 98.375 112.613 98.205 112.816C98.045 113.008 97.853 113.179 97.629 113.328C97.405 113.467 97.149 113.579 96.861 113.664C96.583 113.749 96.263 113.792 95.901 113.792ZM96.109 112.656C96.482 112.656 96.818 112.581 97.117 112.432C97.426 112.272 97.687 112.059 97.901 111.792C98.114 111.515 98.274 111.211 98.381 110.88C98.498 110.549 98.557 110.203 98.557 109.84V109.792H96.541C96.018 109.792 95.597 109.856 95.277 109.984C94.957 110.101 94.727 110.272 94.589 110.496C94.45 110.709 94.381 110.955 94.381 111.232C94.381 111.52 94.445 111.771 94.573 111.984C94.711 112.197 94.909 112.363 95.165 112.48C95.431 112.597 95.746 112.656 96.109 112.656ZM107.212 113.792C106.454 113.792 105.772 113.616 105.164 113.264C104.566 112.912 104.097 112.421 103.756 111.792C103.414 111.152 103.244 110.416 103.244 109.584C103.244 108.731 103.414 107.989 103.756 107.36C104.097 106.731 104.566 106.24 105.164 105.888C105.772 105.525 106.454 105.344 107.212 105.344C108.172 105.344 108.972 105.595 109.612 106.096C110.252 106.587 110.657 107.248 110.828 108.08H109.452C109.345 107.579 109.084 107.189 108.668 106.912C108.252 106.635 107.761 106.496 107.196 106.496C106.737 106.496 106.31 106.613 105.916 106.848C105.521 107.072 105.206 107.413 104.972 107.872C104.737 108.331 104.62 108.896 104.62 109.568C104.62 110.069 104.689 110.517 104.828 110.912C104.966 111.296 105.153 111.616 105.388 111.872C105.622 112.128 105.894 112.325 106.204 112.464C106.524 112.592 106.854 112.656 107.196 112.656C107.58 112.656 107.926 112.597 108.236 112.48C108.545 112.352 108.806 112.165 109.02 111.92C109.233 111.675 109.377 111.387 109.452 111.056H110.828C110.657 111.867 110.246 112.528 109.596 113.04C108.956 113.541 108.161 113.792 107.212 113.792ZM117.872 113.792C117.115 113.792 116.443 113.616 115.856 113.264C115.28 112.912 114.827 112.421 114.496 111.792C114.165 111.152 114 110.411 114 109.568C114 108.715 114.16 107.973 114.48 107.344C114.811 106.715 115.269 106.224 115.856 105.872C116.453 105.52 117.136 105.344 117.904 105.344C118.693 105.344 119.36 105.52 119.904 105.872C120.459 106.224 120.88 106.688 121.168 107.264C121.467 107.829 121.616 108.453 121.616 109.136C121.616 109.243 121.616 109.355 121.616 109.472C121.616 109.589 121.611 109.723 121.6 109.872H115.008V108.832H120.304C120.272 108.096 120.027 107.52 119.568 107.104C119.12 106.688 118.555 106.48 117.872 106.48C117.413 106.48 116.987 106.587 116.592 106.8C116.208 107.003 115.899 107.307 115.664 107.712C115.429 108.107 115.312 108.603 115.312 109.2V109.648C115.312 110.309 115.429 110.864 115.664 111.312C115.909 111.76 116.224 112.096 116.608 112.32C117.003 112.544 117.424 112.656 117.872 112.656C118.437 112.656 118.901 112.533 119.264 112.288C119.637 112.032 119.904 111.691 120.064 111.264H121.392C121.264 111.744 121.04 112.176 120.72 112.56C120.4 112.944 120 113.248 119.52 113.472C119.051 113.685 118.501 113.792 117.872 113.792ZM134.432 113.792C133.653 113.792 132.97 113.611 132.384 113.248C131.797 112.875 131.344 112.368 131.024 111.728C130.704 111.088 130.544 110.363 130.544 109.552C130.544 108.741 130.704 108.021 131.024 107.392C131.344 106.752 131.797 106.251 132.384 105.888C132.981 105.525 133.669 105.344 134.448 105.344C135.109 105.344 135.685 105.477 136.176 105.744C136.677 106.011 137.061 106.384 137.328 106.864V102.08H138.672V113.6H137.456L137.344 112.272C137.173 112.539 136.954 112.789 136.688 113.024C136.421 113.248 136.101 113.435 135.728 113.584C135.354 113.723 134.922 113.792 134.432 113.792ZM134.592 112.624C135.125 112.624 135.594 112.496 136 112.24C136.405 111.984 136.72 111.632 136.944 111.184C137.168 110.725 137.28 110.187 137.28 109.568C137.28 108.96 137.168 108.427 136.944 107.968C136.72 107.509 136.405 107.152 136 106.896C135.594 106.64 135.125 106.512 134.592 106.512C134.069 106.512 133.605 106.64 133.2 106.896C132.794 107.152 132.48 107.509 132.256 107.968C132.032 108.427 131.92 108.96 131.92 109.568C131.92 110.187 132.032 110.725 132.256 111.184C132.48 111.632 132.794 111.984 133.2 112.24C133.605 112.496 134.069 112.624 134.592 112.624ZM146.047 113.792C145.29 113.792 144.618 113.616 144.031 113.264C143.455 112.912 143.002 112.421 142.671 111.792C142.34 111.152 142.175 110.411 142.175 109.568C142.175 108.715 142.335 107.973 142.655 107.344C142.986 106.715 143.444 106.224 144.031 105.872C144.628 105.52 145.311 105.344 146.079 105.344C146.868 105.344 147.535 105.52 148.079 105.872C148.634 106.224 149.055 106.688 149.343 107.264C149.642 107.829 149.791 108.453 149.791 109.136C149.791 109.243 149.791 109.355 149.791 109.472C149.791 109.589 149.786 109.723 149.775 109.872H143.183V108.832H148.479C148.447 108.096 148.202 107.52 147.743 107.104C147.295 106.688 146.73 106.48 146.047 106.48C145.588 106.48 145.162 106.587 144.767 106.8C144.383 107.003 144.074 107.307 143.839 107.712C143.604 108.107 143.487 108.603 143.487 109.2V109.648C143.487 110.309 143.604 110.864 143.839 111.312C144.084 111.76 144.399 112.096 144.783 112.32C145.178 112.544 145.599 112.656 146.047 112.656C146.612 112.656 147.076 112.533 147.439 112.288C147.812 112.032 148.079 111.691 148.239 111.264H149.567C149.439 111.744 149.215 112.176 148.895 112.56C148.575 112.944 148.175 113.248 147.695 113.472C147.226 113.685 146.676 113.792 146.047 113.792ZM159.055 117.12V105.536H160.271L160.383 106.848C160.553 106.592 160.772 106.352 161.039 106.128C161.305 105.893 161.625 105.707 161.999 105.568C162.372 105.419 162.799 105.344 163.279 105.344C164.068 105.344 164.751 105.531 165.327 105.904C165.913 106.277 166.367 106.784 166.687 107.424C167.017 108.053 167.183 108.773 167.183 109.584C167.183 110.395 167.017 111.12 166.687 111.76C166.367 112.389 165.913 112.885 165.327 113.248C164.74 113.611 164.052 113.792 163.263 113.792C162.612 113.792 162.036 113.659 161.535 113.392C161.044 113.125 160.665 112.752 160.399 112.272V117.12H159.055ZM163.119 112.624C163.641 112.624 164.105 112.496 164.511 112.24C164.916 111.984 165.231 111.632 165.455 111.184C165.689 110.725 165.807 110.187 165.807 109.568C165.807 108.96 165.689 108.427 165.455 107.968C165.231 107.509 164.916 107.152 164.511 106.896C164.105 106.64 163.641 106.512 163.119 106.512C162.585 106.512 162.116 106.64 161.711 106.896C161.305 107.152 160.991 107.509 160.767 107.968C160.543 108.427 160.431 108.96 160.431 109.568C160.431 110.187 160.543 110.725 160.767 111.184C160.991 111.632 161.305 111.984 161.711 112.24C162.116 112.496 162.585 112.624 163.119 112.624ZM170.67 113.6V102.08H172.014V106.896C172.281 106.416 172.654 106.037 173.134 105.76C173.625 105.483 174.158 105.344 174.734 105.344C175.353 105.344 175.892 105.472 176.35 105.728C176.809 105.973 177.161 106.352 177.406 106.864C177.652 107.376 177.774 108.021 177.774 108.8V113.6H176.446V108.944C176.446 108.133 176.276 107.525 175.934 107.12C175.593 106.704 175.097 106.496 174.446 106.496C173.988 106.496 173.572 106.608 173.198 106.832C172.836 107.056 172.548 107.376 172.334 107.792C172.121 108.208 172.014 108.72 172.014 109.328V113.6H170.67ZM185.073 113.792C184.327 113.792 183.655 113.621 183.057 113.28C182.46 112.928 181.991 112.437 181.649 111.808C181.308 111.168 181.137 110.427 181.137 109.584C181.137 108.72 181.308 107.973 181.649 107.344C182.001 106.704 182.476 106.213 183.073 105.872C183.681 105.52 184.359 105.344 185.105 105.344C185.873 105.344 186.551 105.52 187.137 105.872C187.735 106.213 188.204 106.704 188.545 107.344C188.897 107.973 189.073 108.715 189.073 109.568C189.073 110.421 188.897 111.168 188.545 111.808C188.193 112.437 187.719 112.928 187.121 113.28C186.524 113.621 185.841 113.792 185.073 113.792ZM185.089 112.64C185.548 112.64 185.975 112.528 186.369 112.304C186.764 112.069 187.084 111.723 187.329 111.264C187.575 110.805 187.697 110.24 187.697 109.568C187.697 108.885 187.575 108.32 187.329 107.872C187.095 107.413 186.78 107.072 186.385 106.848C186.001 106.613 185.575 106.496 185.105 106.496C184.657 106.496 184.231 106.613 183.825 106.848C183.431 107.072 183.111 107.413 182.865 107.872C182.631 108.32 182.513 108.885 182.513 109.568C182.513 110.24 182.631 110.805 182.865 111.264C183.111 111.723 183.425 112.069 183.809 112.304C184.204 112.528 184.631 112.64 185.089 112.64ZM195.413 113.6C194.933 113.6 194.517 113.525 194.165 113.376C193.813 113.227 193.541 112.976 193.349 112.624C193.168 112.261 193.077 111.776 193.077 111.168V106.672H191.669V105.536H193.077L193.253 103.584H194.421V105.536H196.757V106.672H194.421V111.168C194.421 111.669 194.523 112.011 194.725 112.192C194.928 112.363 195.285 112.448 195.797 112.448H196.661V113.6H195.413ZM203.492 113.792C202.746 113.792 202.074 113.621 201.476 113.28C200.879 112.928 200.41 112.437 200.068 111.808C199.727 111.168 199.556 110.427 199.556 109.584C199.556 108.72 199.727 107.973 200.068 107.344C200.42 106.704 200.895 106.213 201.492 105.872C202.1 105.52 202.778 105.344 203.524 105.344C204.292 105.344 204.97 105.52 205.556 105.872C206.154 106.213 206.623 106.704 206.964 107.344C207.316 107.973 207.492 108.715 207.492 109.568C207.492 110.421 207.316 111.168 206.964 111.808C206.612 112.437 206.138 112.928 205.54 113.28C204.943 113.621 204.26 113.792 203.492 113.792ZM203.508 112.64C203.967 112.64 204.394 112.528 204.788 112.304C205.183 112.069 205.503 111.723 205.748 111.264C205.994 110.805 206.116 110.24 206.116 109.568C206.116 108.885 205.994 108.32 205.748 107.872C205.514 107.413 205.199 107.072 204.804 106.848C204.42 106.613 203.994 106.496 203.524 106.496C203.076 106.496 202.65 106.613 202.244 106.848C201.85 107.072 201.53 107.413 201.284 107.872C201.05 108.32 200.932 108.885 200.932 109.568C200.932 110.24 201.05 110.805 201.284 111.264C201.53 111.723 201.844 112.069 202.228 112.304C202.623 112.528 203.05 112.64 203.508 112.64ZM213.817 117.312C213.092 117.312 212.446 117.216 211.881 117.024C211.326 116.843 210.894 116.56 210.585 116.176C210.276 115.792 210.121 115.317 210.121 114.752C210.121 114.507 210.169 114.245 210.265 113.968C210.372 113.691 210.548 113.419 210.793 113.152C211.049 112.885 211.406 112.645 211.865 112.432L212.793 112.976C212.228 113.211 211.86 113.477 211.689 113.776C211.518 114.085 211.433 114.368 211.433 114.624C211.433 114.976 211.534 115.269 211.737 115.504C211.94 115.739 212.222 115.915 212.585 116.032C212.948 116.149 213.358 116.208 213.817 116.208C214.276 116.208 214.67 116.144 215.001 116.016C215.332 115.888 215.588 115.707 215.769 115.472C215.95 115.237 216.041 114.96 216.041 114.64C216.041 114.267 215.902 113.952 215.625 113.696C215.348 113.451 214.82 113.307 214.041 113.264C213.412 113.221 212.884 113.163 212.457 113.088C212.03 113.013 211.678 112.928 211.401 112.832C211.124 112.725 210.889 112.608 210.697 112.48C210.516 112.352 210.35 112.219 210.201 112.08V111.712L211.753 110.176L212.921 110.592L211.321 112.032L211.529 111.472C211.646 111.557 211.758 111.637 211.865 111.712C211.972 111.787 212.116 111.851 212.297 111.904C212.478 111.957 212.729 112.005 213.049 112.048C213.38 112.091 213.812 112.133 214.345 112.176C215.081 112.229 215.668 112.357 216.105 112.56C216.553 112.763 216.873 113.035 217.065 113.376C217.268 113.717 217.369 114.123 217.369 114.592C217.369 115.051 217.241 115.483 216.985 115.888C216.74 116.304 216.356 116.645 215.833 116.912C215.31 117.179 214.638 117.312 213.817 117.312ZM213.801 111.072C213.129 111.072 212.553 110.944 212.073 110.688C211.604 110.432 211.246 110.091 211.001 109.664C210.756 109.227 210.633 108.741 210.633 108.208C210.633 107.675 210.756 107.195 211.001 106.768C211.257 106.341 211.62 106 212.089 105.744C212.558 105.477 213.129 105.344 213.801 105.344C214.473 105.344 215.044 105.477 215.513 105.744C215.982 106 216.34 106.341 216.585 106.768C216.83 107.195 216.953 107.675 216.953 108.208C216.953 108.741 216.83 109.227 216.585 109.664C216.34 110.091 215.982 110.432 215.513 110.688C215.044 110.944 214.473 111.072 213.801 111.072ZM213.801 109.968C214.377 109.968 214.83 109.819 215.161 109.52C215.492 109.221 215.657 108.784 215.657 108.208C215.657 107.643 215.492 107.211 215.161 106.912C214.83 106.613 214.377 106.464 213.801 106.464C213.236 106.464 212.777 106.613 212.425 106.912C212.084 107.211 211.913 107.643 211.913 108.208C211.913 108.784 212.084 109.221 212.425 109.52C212.766 109.819 213.225 109.968 213.801 109.968ZM215.113 106.672L214.713 105.536H218.009V106.544L215.113 106.672ZM221.155 113.6V105.536H222.371L222.467 107.072C222.648 106.709 222.877 106.4 223.155 106.144C223.443 105.888 223.784 105.691 224.179 105.552C224.584 105.413 225.043 105.344 225.555 105.344V106.752H225.059C224.717 106.752 224.392 106.8 224.083 106.896C223.773 106.981 223.496 107.125 223.251 107.328C223.016 107.531 222.829 107.808 222.691 108.16C222.563 108.501 222.499 108.928 222.499 109.44V113.6H221.155ZM231.301 113.792C230.65 113.792 230.106 113.68 229.669 113.456C229.231 113.221 228.906 112.917 228.693 112.544C228.479 112.16 228.373 111.744 228.373 111.296C228.373 110.752 228.511 110.293 228.789 109.92C229.077 109.536 229.477 109.248 229.989 109.056C230.511 108.853 231.125 108.752 231.829 108.752H233.957C233.957 108.251 233.877 107.835 233.717 107.504C233.567 107.163 233.343 106.907 233.045 106.736C232.757 106.565 232.394 106.48 231.957 106.48C231.445 106.48 231.002 106.608 230.629 106.864C230.255 107.12 230.026 107.499 229.941 108H228.565C228.629 107.424 228.821 106.944 229.141 106.56C229.471 106.165 229.887 105.867 230.389 105.664C230.89 105.451 231.413 105.344 231.957 105.344C232.703 105.344 233.322 105.483 233.813 105.76C234.314 106.027 234.687 106.405 234.933 106.896C235.178 107.376 235.301 107.947 235.301 108.608V113.6H234.101L234.021 112.176C233.914 112.4 233.775 112.613 233.605 112.816C233.445 113.008 233.253 113.179 233.029 113.328C232.805 113.467 232.549 113.579 232.261 113.664C231.983 113.749 231.663 113.792 231.301 113.792ZM231.509 112.656C231.882 112.656 232.218 112.581 232.517 112.432C232.826 112.272 233.087 112.059 233.301 111.792C233.514 111.515 233.674 111.211 233.781 110.88C233.898 110.549 233.957 110.203 233.957 109.84V109.792H231.941C231.418 109.792 230.997 109.856 230.677 109.984C230.357 110.101 230.127 110.272 229.989 110.496C229.85 110.709 229.781 110.955 229.781 111.232C229.781 111.52 229.845 111.771 229.973 111.984C230.111 112.197 230.309 112.363 230.565 112.48C230.831 112.597 231.146 112.656 231.509 112.656ZM238.98 117.12V105.536H240.196L240.308 106.848C240.478 106.592 240.697 106.352 240.964 106.128C241.23 105.893 241.55 105.707 241.924 105.568C242.297 105.419 242.724 105.344 243.204 105.344C243.993 105.344 244.676 105.531 245.252 105.904C245.838 106.277 246.292 106.784 246.612 107.424C246.942 108.053 247.108 108.773 247.108 109.584C247.108 110.395 246.942 111.12 246.612 111.76C246.292 112.389 245.838 112.885 245.252 113.248C244.665 113.611 243.977 113.792 243.188 113.792C242.537 113.792 241.961 113.659 241.46 113.392C240.969 113.125 240.59 112.752 240.324 112.272V117.12H238.98ZM243.044 112.624C243.566 112.624 244.03 112.496 244.436 112.24C244.841 111.984 245.156 111.632 245.38 111.184C245.614 110.725 245.732 110.187 245.732 109.568C245.732 108.96 245.614 108.427 245.38 107.968C245.156 107.509 244.841 107.152 244.436 106.896C244.03 106.64 243.566 106.512 243.044 106.512C242.51 106.512 242.041 106.64 241.636 106.896C241.23 107.152 240.916 107.509 240.692 107.968C240.468 108.427 240.356 108.96 240.356 109.568C240.356 110.187 240.468 110.725 240.692 111.184C240.916 111.632 241.23 111.984 241.636 112.24C242.041 112.496 242.51 112.624 243.044 112.624ZM250.595 113.6V102.08H251.939V106.896C252.206 106.416 252.579 106.037 253.059 105.76C253.55 105.483 254.083 105.344 254.659 105.344C255.278 105.344 255.817 105.472 256.275 105.728C256.734 105.973 257.086 106.352 257.331 106.864C257.577 107.376 257.699 108.021 257.699 108.8V113.6H256.371V108.944C256.371 108.133 256.201 107.525 255.859 107.12C255.518 106.704 255.022 106.496 254.371 106.496C253.913 106.496 253.497 106.608 253.123 106.832C252.761 107.056 252.473 107.376 252.259 107.792C252.046 108.208 251.939 108.72 251.939 109.328V113.6H250.595ZM261.527 113.6V105.536H262.871V113.6H261.527ZM262.199 103.824C261.932 103.824 261.708 103.739 261.527 103.568C261.356 103.387 261.271 103.163 261.271 102.896C261.271 102.629 261.356 102.416 261.527 102.256C261.708 102.085 261.932 102 262.199 102C262.455 102 262.673 102.085 262.855 102.256C263.036 102.416 263.127 102.629 263.127 102.896C263.127 103.163 263.036 103.387 262.855 103.568C262.673 103.739 262.455 103.824 262.199 103.824ZM270.378 113.792C269.621 113.792 268.949 113.616 268.362 113.264C267.786 112.912 267.333 112.421 267.002 111.792C266.672 111.152 266.506 110.411 266.506 109.568C266.506 108.715 266.666 107.973 266.986 107.344C267.317 106.715 267.776 106.224 268.362 105.872C268.96 105.52 269.642 105.344 270.41 105.344C271.2 105.344 271.866 105.52 272.41 105.872C272.965 106.224 273.386 106.688 273.674 107.264C273.973 107.829 274.122 108.453 274.122 109.136C274.122 109.243 274.122 109.355 274.122 109.472C274.122 109.589 274.117 109.723 274.106 109.872H267.514V108.832H272.81C272.778 108.096 272.533 107.52 272.074 107.104C271.626 106.688 271.061 106.48 270.378 106.48C269.92 106.48 269.493 106.587 269.098 106.8C268.714 107.003 268.405 107.307 268.17 107.712C267.936 108.107 267.818 108.603 267.818 109.2V109.648C267.818 110.309 267.936 110.864 268.17 111.312C268.416 111.76 268.73 112.096 269.114 112.32C269.509 112.544 269.93 112.656 270.378 112.656C270.944 112.656 271.408 112.533 271.77 112.288C272.144 112.032 272.41 111.691 272.57 111.264H273.898C273.77 111.744 273.546 112.176 273.226 112.56C272.906 112.944 272.506 113.248 272.026 113.472C271.557 113.685 271.008 113.792 270.378 113.792ZM280.576 113.792C279.904 113.792 279.317 113.68 278.816 113.456C278.325 113.232 277.931 112.923 277.632 112.528C277.344 112.123 277.168 111.648 277.104 111.104H278.48C278.533 111.381 278.645 111.637 278.816 111.872C278.987 112.107 279.216 112.299 279.504 112.448C279.803 112.587 280.165 112.656 280.592 112.656C280.965 112.656 281.275 112.603 281.52 112.496C281.765 112.379 281.947 112.224 282.064 112.032C282.192 111.84 282.256 111.632 282.256 111.408C282.256 111.077 282.176 110.827 282.016 110.656C281.867 110.485 281.643 110.352 281.344 110.256C281.045 110.149 280.683 110.059 280.256 109.984C279.904 109.92 279.557 109.835 279.216 109.728C278.875 109.621 278.571 109.483 278.304 109.312C278.037 109.131 277.824 108.912 277.664 108.656C277.515 108.4 277.44 108.085 277.44 107.712C277.44 107.253 277.557 106.848 277.792 106.496C278.027 106.133 278.363 105.851 278.8 105.648C279.248 105.445 279.765 105.344 280.352 105.344C281.216 105.344 281.915 105.552 282.448 105.968C282.981 106.384 283.296 106.987 283.392 107.776H282.064C282.011 107.371 281.835 107.056 281.536 106.832C281.248 106.597 280.848 106.48 280.336 106.48C279.835 106.48 279.451 106.581 279.184 106.784C278.928 106.987 278.8 107.253 278.8 107.584C278.8 107.797 278.869 107.989 279.008 108.16C279.157 108.32 279.371 108.459 279.648 108.576C279.936 108.693 280.288 108.789 280.704 108.864C281.237 108.96 281.723 109.088 282.16 109.248C282.597 109.408 282.949 109.648 283.216 109.968C283.493 110.277 283.632 110.72 283.632 111.296C283.632 111.797 283.504 112.235 283.248 112.608C283.003 112.981 282.651 113.275 282.192 113.488C281.733 113.691 281.195 113.792 280.576 113.792Z" fill="#8C8C8C"></path><path d="M350.207 49L347.229 63.99H345.422C345.259 59.628 344.332 56.454 342.639 54.468C340.946 52.483 338.847 51.49 336.34 51.49C334.322 51.49 332.711 52.043 331.506 53.15C330.334 54.257 329.748 55.591 329.748 57.154C329.748 58.228 329.976 59.253 330.432 60.23C330.92 61.207 331.962 62.574 333.557 64.332C337.789 68.954 340.523 72.437 341.76 74.781C342.997 77.125 343.616 79.338 343.616 81.421C343.616 84.807 342.199 87.818 339.367 90.455C336.568 93.059 333.02 94.361 328.723 94.361C326.379 94.361 323.677 93.807 320.617 92.701C319.543 92.31 318.713 92.115 318.127 92.115C316.662 92.115 315.556 92.863 314.807 94.361H313L315.979 78.541H317.785C317.981 83.488 319.006 86.988 320.862 89.039C322.717 91.089 325.256 92.115 328.479 92.115C330.953 92.115 332.906 91.431 334.338 90.064C335.803 88.664 336.535 86.955 336.535 84.937C336.535 83.635 336.275 82.431 335.754 81.324C334.843 79.371 332.922 76.669 329.992 73.218C327.095 69.768 325.224 67.18 324.377 65.455C323.563 63.729 323.157 62.004 323.157 60.279C323.157 57.121 324.296 54.452 326.574 52.271C328.886 50.09 331.848 49 335.461 49C336.503 49 337.447 49.081 338.293 49.244C338.749 49.341 339.807 49.716 341.467 50.367C343.16 50.985 344.283 51.294 344.836 51.294C346.236 51.294 347.408 50.529 348.352 49H350.207Z" fill="black"></path><path d="M299 25V112" stroke="#8C8C8C" stroke-width="6"></path><path d="M21.109 78.125C18.375 76.791 16.275 74.935 14.81 72.559C13.345 70.15 12.613 67.497 12.613 64.6C12.613 60.173 14.273 56.364 17.593 53.174C20.946 49.984 25.227 48.389 30.435 48.389C34.699 48.389 38.394 49.431 41.519 51.514H50.992C52.391 51.514 53.205 51.563 53.433 51.661C53.661 51.726 53.824 51.856 53.921 52.051C54.117 52.344 54.214 52.865 54.214 53.614C54.214 54.46 54.133 55.046 53.97 55.372C53.873 55.534 53.694 55.664 53.433 55.762C53.205 55.86 52.391 55.909 50.992 55.909H45.181C47.004 58.252 47.916 61.247 47.916 64.893C47.916 69.06 46.32 72.624 43.13 75.586C39.94 78.549 35.66 80.03 30.289 80.03C28.075 80.03 25.813 79.704 23.501 79.053C22.069 80.29 21.093 81.381 20.572 82.325C20.083 83.236 19.839 84.017 19.839 84.668C19.839 85.222 20.1 85.759 20.621 86.28C21.174 86.801 22.232 87.175 23.794 87.403C24.706 87.533 26.985 87.647 30.63 87.745C37.336 87.907 41.682 88.135 43.667 88.428C46.695 88.851 49.104 89.974 50.894 91.797C52.717 93.62 53.628 95.866 53.628 98.536C53.628 102.214 51.903 105.664 48.453 108.887C43.375 113.64 36.75 116.016 28.58 116.016C22.297 116.016 16.991 114.6 12.662 111.768C10.22 110.14 9 108.448 9 106.69C9 105.909 9.179 105.127 9.537 104.346C10.09 103.142 11.229 101.465 12.955 99.317C13.182 99.024 14.843 97.266 17.935 94.043C16.242 93.034 15.038 92.139 14.322 91.358C13.638 90.544 13.296 89.633 13.296 88.623C13.296 87.484 13.752 86.149 14.664 84.62C15.608 83.09 17.756 80.925 21.109 78.125ZM29.605 50.733C27.196 50.733 25.178 51.693 23.55 53.614C21.923 55.534 21.109 58.48 21.109 62.452C21.109 67.595 22.216 71.582 24.429 74.414C26.122 76.563 28.27 77.637 30.875 77.637C33.348 77.637 35.383 76.709 36.978 74.854C38.573 72.998 39.371 70.085 39.371 66.114C39.371 60.938 38.248 56.885 36.001 53.955C34.341 51.807 32.209 50.733 29.605 50.733ZM20.621 94.434C19.091 96.094 17.935 97.64 17.154 99.073C16.373 100.505 15.982 101.823 15.982 103.028C15.982 104.59 16.926 105.957 18.814 107.129C22.069 109.148 26.773 110.157 32.925 110.157C38.785 110.157 43.098 109.115 45.865 107.032C48.664 104.981 50.064 102.784 50.064 100.44C50.064 98.747 49.234 97.543 47.574 96.827C45.881 96.11 42.528 95.687 37.515 95.557C30.191 95.362 24.559 94.987 20.621 94.434ZM84.488 87.989C79.898 91.537 77.017 93.588 75.845 94.141C74.087 94.955 72.216 95.362 70.23 95.362C67.138 95.362 64.582 94.304 62.564 92.188C60.578 90.072 59.585 87.289 59.585 83.838C59.585 81.657 60.074 79.769 61.05 78.174C62.385 75.961 64.696 73.877 67.984 71.924C71.304 69.971 76.806 67.595 84.488 64.795V63.038C84.488 58.578 83.772 55.518 82.339 53.858C80.94 52.198 78.889 51.368 76.187 51.368C74.136 51.368 72.509 51.921 71.304 53.028C70.067 54.135 69.449 55.404 69.449 56.836L69.546 59.668C69.546 61.166 69.156 62.321 68.375 63.135C67.626 63.949 66.633 64.356 65.396 64.356C64.192 64.356 63.199 63.933 62.417 63.086C61.669 62.24 61.294 61.084 61.294 59.62C61.294 56.82 62.727 54.248 65.591 51.905C68.456 49.561 72.476 48.389 77.652 48.389C81.623 48.389 84.878 49.056 87.417 50.391C89.338 51.4 90.754 52.979 91.666 55.127C92.251 56.527 92.544 59.392 92.544 63.721V78.907C92.544 83.171 92.626 85.791 92.789 86.768C92.951 87.712 93.212 88.347 93.57 88.672C93.96 88.998 94.4 89.161 94.888 89.161C95.409 89.161 95.865 89.047 96.255 88.819C96.939 88.396 98.257 87.207 100.21 85.254V87.989C96.565 92.872 93.082 95.313 89.761 95.313C88.166 95.313 86.897 94.76 85.953 93.653C85.009 92.546 84.52 90.658 84.488 87.989ZM84.488 84.815V67.774C79.572 69.727 76.399 71.11 74.966 71.924C72.395 73.357 70.556 74.854 69.449 76.416C68.342 77.979 67.789 79.688 67.789 81.543C67.789 83.887 68.488 85.84 69.888 87.403C71.288 88.933 72.899 89.698 74.722 89.698C77.196 89.698 80.451 88.07 84.488 84.815ZM118.96 25V84.327C118.96 87.126 119.156 88.982 119.546 89.893C119.97 90.804 120.604 91.504 121.451 91.993C122.297 92.448 123.876 92.676 126.187 92.676V94.434H104.263V92.676C106.314 92.676 107.714 92.465 108.462 92.041C109.211 91.618 109.797 90.918 110.22 89.942C110.643 88.965 110.855 87.094 110.855 84.327V43.702C110.855 38.656 110.741 35.564 110.513 34.424C110.285 33.252 109.911 32.455 109.39 32.032C108.902 31.608 108.267 31.397 107.486 31.397C106.639 31.397 105.565 31.657 104.263 32.178L103.433 30.469L116.763 25H118.96ZM138.931 66.553C138.899 73.194 140.51 78.402 143.765 82.178C147.02 85.954 150.845 87.842 155.24 87.842C158.169 87.842 160.709 87.045 162.857 85.45C165.038 83.822 166.861 81.055 168.326 77.149L169.839 78.125C169.156 82.585 167.17 86.654 163.882 90.332C160.595 93.978 156.477 95.801 151.529 95.801C146.158 95.801 141.552 93.718 137.71 89.551C133.902 85.352 131.998 79.72 131.998 72.657C131.998 65.007 133.951 59.05 137.857 54.786C141.796 50.489 146.727 48.34 152.652 48.34C157.665 48.34 161.783 50 165.005 53.321C168.228 56.608 169.839 61.019 169.839 66.553H138.931ZM138.931 63.721H159.634C159.472 60.857 159.13 58.838 158.609 57.666C157.795 55.844 156.574 54.411 154.947 53.37C153.352 52.328 151.675 51.807 149.917 51.807C147.216 51.807 144.791 52.865 142.642 54.981C140.526 57.064 139.289 59.978 138.931 63.721ZM188.931 48.389V58.448C192.675 51.742 196.516 48.389 200.455 48.389C202.245 48.389 203.726 48.942 204.898 50.049C206.07 51.123 206.656 52.377 206.656 53.809C206.656 55.079 206.233 56.153 205.386 57.032C204.54 57.911 203.531 58.35 202.359 58.35C201.22 58.35 199.934 57.797 198.501 56.69C197.102 55.551 196.06 54.981 195.376 54.981C194.791 54.981 194.156 55.306 193.472 55.957C192.007 57.292 190.494 59.489 188.931 62.549V83.985C188.931 86.459 189.24 88.33 189.859 89.6C190.282 90.479 191.031 91.211 192.105 91.797C193.179 92.383 194.725 92.676 196.744 92.676V94.434H173.843V92.676C176.122 92.676 177.815 92.318 178.921 91.602C179.735 91.081 180.305 90.251 180.63 89.112C180.793 88.558 180.875 86.98 180.875 84.375V67.041C180.875 61.833 180.761 58.741 180.533 57.764C180.337 56.755 179.947 56.023 179.361 55.567C178.807 55.111 178.108 54.883 177.261 54.883C176.252 54.883 175.113 55.127 173.843 55.616L173.355 53.858L186.88 48.389H188.931ZM220.523 25C221.89 25 223.046 25.489 223.99 26.465C224.966 27.409 225.455 28.565 225.455 29.932C225.455 31.299 224.966 32.471 223.99 33.448C223.046 34.424 221.89 34.913 220.523 34.913C219.156 34.913 217.984 34.424 217.007 33.448C216.031 32.471 215.542 31.299 215.542 29.932C215.542 28.565 216.014 27.409 216.959 26.465C217.935 25.489 219.123 25 220.523 25ZM224.576 48.389V84.327C224.576 87.126 224.771 88.998 225.162 89.942C225.585 90.853 226.187 91.537 226.968 91.993C227.782 92.448 229.247 92.676 231.363 92.676V94.434H209.634V92.676C211.815 92.676 213.28 92.465 214.029 92.041C214.778 91.618 215.363 90.918 215.787 89.942C216.242 88.965 216.47 87.094 216.47 84.327V67.09C216.47 62.24 216.324 59.099 216.031 57.666C215.803 56.625 215.445 55.909 214.957 55.518C214.468 55.095 213.801 54.883 212.955 54.883C212.043 54.883 210.936 55.127 209.634 55.616L208.951 53.858L222.427 48.389H224.576ZM244.498 66.553C244.465 73.194 246.076 78.402 249.332 82.178C252.587 85.954 256.412 87.842 260.806 87.842C263.736 87.842 266.275 87.045 268.423 85.45C270.604 83.822 272.427 81.055 273.892 77.149L275.406 78.125C274.722 82.585 272.736 86.654 269.449 90.332C266.161 93.978 262.043 95.801 257.095 95.801C251.724 95.801 247.118 93.718 243.277 89.551C239.468 85.352 237.564 79.72 237.564 72.657C237.564 65.007 239.517 59.05 243.423 54.786C247.362 50.489 252.294 48.34 258.218 48.34C263.231 48.34 267.349 50 270.572 53.321C273.794 56.608 275.406 61.019 275.406 66.553H244.498ZM244.498 63.721H265.201C265.038 60.857 264.696 58.838 264.175 57.666C263.361 55.844 262.141 54.411 260.513 53.37C258.918 52.328 257.242 51.807 255.484 51.807C252.782 51.807 250.357 52.865 248.209 54.981C246.093 57.064 244.856 59.978 244.498 63.721Z" fill="black"></path></svg>